G04 #@! TF.FileFunction,Copper,L1,Top,Signal*
%FSLAX46Y46*%
G04 Gerber Fmt 4.6, Leading zero omitted, Abs format (unit mm)*
G04 Created by KiCad (PCBNEW 4.0.5+dfsg1-4) date Sun Aug 27 14:42:39 2017*
%MOMM*%
%LPD*%
G01*
G04 APERTURE LIST*
%ADD10C,0.100000*%
%ADD11C,1.600000*%
%ADD12C,1.800000*%
%ADD13C,4.000000*%
%ADD14C,0.250000*%
G04 APERTURE END LIST*
D10*
D11*
X208915000Y-115570000D03*
X211455000Y-115570000D03*
X213995000Y-115570000D03*
X216535000Y-115570000D03*
X213995000Y-95250000D03*
X216535000Y-95250000D03*
X219075000Y-95250000D03*
X208915000Y-95250000D03*
X206375000Y-95250000D03*
X211455000Y-95250000D03*
X187452000Y-108458000D03*
X189484000Y-116840000D03*
D12*
X198882000Y-118110000D03*
X192278000Y-118110000D03*
D11*
X201803000Y-104140000D03*
X199263000Y-104140000D03*
X201803000Y-88900000D03*
X196723000Y-104140000D03*
X194183000Y-104140000D03*
X191643000Y-104140000D03*
X189103000Y-104140000D03*
X186563000Y-104140000D03*
X184023000Y-104140000D03*
X181483000Y-104140000D03*
X178943000Y-104140000D03*
X176403000Y-104140000D03*
X173863000Y-104140000D03*
X199263000Y-88900000D03*
X196723000Y-88900000D03*
X194183000Y-88900000D03*
X191643000Y-88900000D03*
X189103000Y-88900000D03*
X186563000Y-88900000D03*
X184023000Y-88900000D03*
X181483000Y-88900000D03*
X178943000Y-88900000D03*
X176403000Y-88900000D03*
X173863000Y-88900000D03*
D12*
X198882000Y-113030000D03*
X192278000Y-113030000D03*
X202565000Y-112268000D03*
X202565000Y-118872000D03*
D11*
X201295000Y-122555000D03*
X198755000Y-122555000D03*
X195580000Y-108585000D03*
X198120000Y-108585000D03*
X193040000Y-108585000D03*
X200660000Y-108585000D03*
D13*
X193675000Y-122555000D03*
X217805000Y-89535000D03*
D14*
X198120000Y-108585000D02*
X198120000Y-109220000D01*
X198120000Y-109220000D02*
X199390000Y-110490000D01*
X199390000Y-110490000D02*
X201930000Y-110490000D01*
X201930000Y-110490000D02*
X205105000Y-107315000D01*
X205105000Y-107315000D02*
X205105000Y-99060000D01*
X205105000Y-99060000D02*
X200660000Y-94615000D01*
X200660000Y-94615000D02*
X183515000Y-94615000D01*
X183515000Y-94615000D02*
X181483000Y-92583000D01*
X181483000Y-92583000D02*
X181483000Y-88900000D01*
X208915000Y-115570000D02*
X208915000Y-109855000D01*
X208915000Y-106045000D02*
X208915000Y-100965000D01*
X200660000Y-92710000D02*
X185293000Y-92710000D01*
X208915000Y-100965000D02*
X200660000Y-92710000D01*
X208915000Y-109855000D02*
X208915000Y-106045000D01*
X198755000Y-122555000D02*
X198120000Y-122555000D01*
X198120000Y-122555000D02*
X195580000Y-120015000D01*
X195580000Y-120015000D02*
X186690000Y-120015000D01*
X186690000Y-120015000D02*
X171450000Y-104775000D01*
X171450000Y-104775000D02*
X171450000Y-98933000D01*
X171450000Y-98933000D02*
X181483000Y-88900000D01*
X185293000Y-92710000D02*
X181483000Y-88900000D01*
X200660000Y-108585000D02*
X200660000Y-101600000D01*
X189738000Y-100965000D02*
X186563000Y-104140000D01*
X200025000Y-100965000D02*
X189738000Y-100965000D01*
X200660000Y-101600000D02*
X200025000Y-100965000D01*
X202565000Y-112268000D02*
X202565000Y-114300000D01*
X212725000Y-88900000D02*
X201803000Y-88900000D01*
X217805000Y-93980000D02*
X212725000Y-88900000D01*
X217805000Y-97155000D02*
X217805000Y-93980000D01*
X219710000Y-99060000D02*
X217805000Y-97155000D01*
X219710000Y-115570000D02*
X219710000Y-99060000D01*
X217170000Y-118110000D02*
X219710000Y-115570000D01*
X206375000Y-118110000D02*
X217170000Y-118110000D01*
X202565000Y-114300000D02*
X206375000Y-118110000D01*
X192278000Y-113030000D02*
X192278000Y-109728000D01*
X190500000Y-105283000D02*
X191643000Y-104140000D01*
X190500000Y-107950000D02*
X190500000Y-105283000D01*
X192278000Y-109728000D02*
X190500000Y-107950000D01*
X192278000Y-116078000D02*
X192278000Y-118110000D01*
X190500000Y-114300000D02*
X192278000Y-116078000D01*
X190500000Y-110490000D02*
X190500000Y-114300000D01*
X189103000Y-104140000D02*
X189103000Y-109093000D01*
X189103000Y-109093000D02*
X190500000Y-110490000D01*
X211455000Y-115570000D02*
X211455000Y-98425000D01*
X193548000Y-90805000D02*
X191643000Y-88900000D01*
X207645000Y-90805000D02*
X193548000Y-90805000D01*
X210185000Y-93345000D02*
X207645000Y-90805000D01*
X210185000Y-97155000D02*
X210185000Y-93345000D01*
X211455000Y-98425000D02*
X210185000Y-97155000D01*
X191643000Y-88900000D02*
X191643000Y-89408000D01*
X213995000Y-115570000D02*
X212725000Y-116840000D01*
X191643000Y-91440000D02*
X189103000Y-88900000D01*
X204470000Y-91440000D02*
X191643000Y-91440000D01*
X207645000Y-94615000D02*
X204470000Y-91440000D01*
X207645000Y-95885000D02*
X207645000Y-94615000D01*
X210185000Y-98425000D02*
X207645000Y-95885000D01*
X210185000Y-115570000D02*
X210185000Y-98425000D01*
X210185000Y-117475000D02*
X210185000Y-115570000D01*
X212090000Y-117475000D02*
X210185000Y-117475000D01*
X212725000Y-116840000D02*
X212090000Y-117475000D01*
M02*
