G04 #@! TF.FileFunction,Legend,Bot*
%FSLAX46Y46*%
G04 Gerber Fmt 4.6, Leading zero omitted, Abs format (unit mm)*
G04 Created by KiCad (PCBNEW 4.0.5+dfsg1-4) date Sun Aug 27 14:42:39 2017*
%MOMM*%
%LPD*%
G01*
G04 APERTURE LIST*
%ADD10C,0.100000*%
%ADD11C,0.300000*%
G04 APERTURE END LIST*
D10*
D11*
X191801428Y-97746429D02*
X191729999Y-97675000D01*
X191587142Y-97603571D01*
X191229999Y-97603571D01*
X191087142Y-97675000D01*
X191015713Y-97746429D01*
X190944285Y-97889286D01*
X190944285Y-98032143D01*
X191015713Y-98246429D01*
X191872856Y-99103571D01*
X190944285Y-99103571D01*
X190015714Y-97603571D02*
X189872857Y-97603571D01*
X189730000Y-97675000D01*
X189658571Y-97746429D01*
X189587142Y-97889286D01*
X189515714Y-98175000D01*
X189515714Y-98532143D01*
X189587142Y-98817857D01*
X189658571Y-98960714D01*
X189730000Y-99032143D01*
X189872857Y-99103571D01*
X190015714Y-99103571D01*
X190158571Y-99032143D01*
X190230000Y-98960714D01*
X190301428Y-98817857D01*
X190372857Y-98532143D01*
X190372857Y-98175000D01*
X190301428Y-97889286D01*
X190230000Y-97746429D01*
X190158571Y-97675000D01*
X190015714Y-97603571D01*
X188087143Y-99103571D02*
X188944286Y-99103571D01*
X188515714Y-99103571D02*
X188515714Y-97603571D01*
X188658571Y-97817857D01*
X188801429Y-97960714D01*
X188944286Y-98032143D01*
X187587143Y-97603571D02*
X186587143Y-97603571D01*
X187230000Y-99103571D01*
X197372857Y-94428571D02*
X197015714Y-95928571D01*
X196730000Y-94857143D01*
X196444286Y-95928571D01*
X196087143Y-94428571D01*
X194944286Y-95857143D02*
X195087143Y-95928571D01*
X195372857Y-95928571D01*
X195515714Y-95857143D01*
X195587143Y-95714286D01*
X195587143Y-95142857D01*
X195515714Y-95000000D01*
X195372857Y-94928571D01*
X195087143Y-94928571D01*
X194944286Y-95000000D01*
X194872857Y-95142857D01*
X194872857Y-95285714D01*
X195587143Y-95428571D01*
X194230000Y-95928571D02*
X194230000Y-94928571D01*
X194230000Y-94428571D02*
X194301429Y-94500000D01*
X194230000Y-94571429D01*
X194158572Y-94500000D01*
X194230000Y-94428571D01*
X194230000Y-94571429D01*
X192872857Y-94928571D02*
X192872857Y-96142857D01*
X192944286Y-96285714D01*
X193015714Y-96357143D01*
X193158571Y-96428571D01*
X193372857Y-96428571D01*
X193515714Y-96357143D01*
X192872857Y-95857143D02*
X193015714Y-95928571D01*
X193301428Y-95928571D01*
X193444286Y-95857143D01*
X193515714Y-95785714D01*
X193587143Y-95642857D01*
X193587143Y-95214286D01*
X193515714Y-95071429D01*
X193444286Y-95000000D01*
X193301428Y-94928571D01*
X193015714Y-94928571D01*
X192872857Y-95000000D01*
X192158571Y-95928571D02*
X192158571Y-94428571D01*
X191515714Y-95928571D02*
X191515714Y-95142857D01*
X191587143Y-95000000D01*
X191730000Y-94928571D01*
X191944285Y-94928571D01*
X192087143Y-95000000D01*
X192158571Y-95071429D01*
X191015714Y-94928571D02*
X190444285Y-94928571D01*
X190801428Y-94428571D02*
X190801428Y-95714286D01*
X190730000Y-95857143D01*
X190587142Y-95928571D01*
X190444285Y-95928571D01*
X190301428Y-96071429D02*
X189158571Y-96071429D01*
X188158571Y-95857143D02*
X188301428Y-95928571D01*
X188587142Y-95928571D01*
X188730000Y-95857143D01*
X188801428Y-95785714D01*
X188872857Y-95642857D01*
X188872857Y-95214286D01*
X188801428Y-95071429D01*
X188730000Y-95000000D01*
X188587142Y-94928571D01*
X188301428Y-94928571D01*
X188158571Y-95000000D01*
X187301428Y-95928571D02*
X187444286Y-95857143D01*
X187515714Y-95785714D01*
X187587143Y-95642857D01*
X187587143Y-95214286D01*
X187515714Y-95071429D01*
X187444286Y-95000000D01*
X187301428Y-94928571D01*
X187087143Y-94928571D01*
X186944286Y-95000000D01*
X186872857Y-95071429D01*
X186801428Y-95214286D01*
X186801428Y-95642857D01*
X186872857Y-95785714D01*
X186944286Y-95857143D01*
X187087143Y-95928571D01*
X187301428Y-95928571D01*
X185515714Y-95928571D02*
X185515714Y-95142857D01*
X185587143Y-95000000D01*
X185730000Y-94928571D01*
X186015714Y-94928571D01*
X186158571Y-95000000D01*
X185515714Y-95857143D02*
X185658571Y-95928571D01*
X186015714Y-95928571D01*
X186158571Y-95857143D01*
X186230000Y-95714286D01*
X186230000Y-95571429D01*
X186158571Y-95428571D01*
X186015714Y-95357143D01*
X185658571Y-95357143D01*
X185515714Y-95285714D01*
X184872857Y-95857143D02*
X184730000Y-95928571D01*
X184444285Y-95928571D01*
X184301428Y-95857143D01*
X184230000Y-95714286D01*
X184230000Y-95642857D01*
X184301428Y-95500000D01*
X184444285Y-95428571D01*
X184658571Y-95428571D01*
X184801428Y-95357143D01*
X184872857Y-95214286D01*
X184872857Y-95142857D01*
X184801428Y-95000000D01*
X184658571Y-94928571D01*
X184444285Y-94928571D01*
X184301428Y-95000000D01*
X183801428Y-94928571D02*
X183229999Y-94928571D01*
X183587142Y-94428571D02*
X183587142Y-95714286D01*
X183515714Y-95857143D01*
X183372856Y-95928571D01*
X183229999Y-95928571D01*
X182158571Y-95857143D02*
X182301428Y-95928571D01*
X182587142Y-95928571D01*
X182729999Y-95857143D01*
X182801428Y-95714286D01*
X182801428Y-95142857D01*
X182729999Y-95000000D01*
X182587142Y-94928571D01*
X182301428Y-94928571D01*
X182158571Y-95000000D01*
X182087142Y-95142857D01*
X182087142Y-95285714D01*
X182801428Y-95428571D01*
X181444285Y-95928571D02*
X181444285Y-94928571D01*
X181444285Y-95214286D02*
X181372857Y-95071429D01*
X181301428Y-95000000D01*
X181158571Y-94928571D01*
X181015714Y-94928571D01*
X195622856Y-92602857D02*
X196122856Y-92602857D01*
X196122856Y-93388571D02*
X196122856Y-91888571D01*
X195408570Y-91888571D01*
X194194285Y-93388571D02*
X194194285Y-92602857D01*
X194265714Y-92460000D01*
X194408571Y-92388571D01*
X194694285Y-92388571D01*
X194837142Y-92460000D01*
X194194285Y-93317143D02*
X194337142Y-93388571D01*
X194694285Y-93388571D01*
X194837142Y-93317143D01*
X194908571Y-93174286D01*
X194908571Y-93031429D01*
X194837142Y-92888571D01*
X194694285Y-92817143D01*
X194337142Y-92817143D01*
X194194285Y-92745714D01*
X192837142Y-93317143D02*
X192979999Y-93388571D01*
X193265713Y-93388571D01*
X193408571Y-93317143D01*
X193479999Y-93245714D01*
X193551428Y-93102857D01*
X193551428Y-92674286D01*
X193479999Y-92531429D01*
X193408571Y-92460000D01*
X193265713Y-92388571D01*
X192979999Y-92388571D01*
X192837142Y-92460000D01*
X191622857Y-93317143D02*
X191765714Y-93388571D01*
X192051428Y-93388571D01*
X192194285Y-93317143D01*
X192265714Y-93174286D01*
X192265714Y-92602857D01*
X192194285Y-92460000D01*
X192051428Y-92388571D01*
X191765714Y-92388571D01*
X191622857Y-92460000D01*
X191551428Y-92602857D01*
X191551428Y-92745714D01*
X192265714Y-92888571D01*
X190694285Y-93388571D02*
X190837143Y-93317143D01*
X190908571Y-93174286D01*
X190908571Y-91888571D01*
X189551429Y-93317143D02*
X189694286Y-93388571D01*
X189980000Y-93388571D01*
X190122857Y-93317143D01*
X190194286Y-93174286D01*
X190194286Y-92602857D01*
X190122857Y-92460000D01*
X189980000Y-92388571D01*
X189694286Y-92388571D01*
X189551429Y-92460000D01*
X189480000Y-92602857D01*
X189480000Y-92745714D01*
X190194286Y-92888571D01*
X188908572Y-93317143D02*
X188765715Y-93388571D01*
X188480000Y-93388571D01*
X188337143Y-93317143D01*
X188265715Y-93174286D01*
X188265715Y-93102857D01*
X188337143Y-92960000D01*
X188480000Y-92888571D01*
X188694286Y-92888571D01*
X188837143Y-92817143D01*
X188908572Y-92674286D01*
X188908572Y-92602857D01*
X188837143Y-92460000D01*
X188694286Y-92388571D01*
X188480000Y-92388571D01*
X188337143Y-92460000D01*
X187694286Y-93317143D02*
X187551429Y-93388571D01*
X187265714Y-93388571D01*
X187122857Y-93317143D01*
X187051429Y-93174286D01*
X187051429Y-93102857D01*
X187122857Y-92960000D01*
X187265714Y-92888571D01*
X187480000Y-92888571D01*
X187622857Y-92817143D01*
X187694286Y-92674286D01*
X187694286Y-92602857D01*
X187622857Y-92460000D01*
X187480000Y-92388571D01*
X187265714Y-92388571D01*
X187122857Y-92460000D01*
X186622857Y-92388571D02*
X186051428Y-92388571D01*
X186408571Y-91888571D02*
X186408571Y-93174286D01*
X186337143Y-93317143D01*
X186194285Y-93388571D01*
X186051428Y-93388571D01*
X184980000Y-93317143D02*
X185122857Y-93388571D01*
X185408571Y-93388571D01*
X185551428Y-93317143D01*
X185622857Y-93174286D01*
X185622857Y-92602857D01*
X185551428Y-92460000D01*
X185408571Y-92388571D01*
X185122857Y-92388571D01*
X184980000Y-92460000D01*
X184908571Y-92602857D01*
X184908571Y-92745714D01*
X185622857Y-92888571D01*
X183622857Y-93317143D02*
X183765714Y-93388571D01*
X184051428Y-93388571D01*
X184194286Y-93317143D01*
X184265714Y-93245714D01*
X184337143Y-93102857D01*
X184337143Y-92674286D01*
X184265714Y-92531429D01*
X184194286Y-92460000D01*
X184051428Y-92388571D01*
X183765714Y-92388571D01*
X183622857Y-92460000D01*
X182980000Y-93388571D02*
X182980000Y-91888571D01*
X182337143Y-93388571D02*
X182337143Y-92602857D01*
X182408572Y-92460000D01*
X182551429Y-92388571D01*
X182765714Y-92388571D01*
X182908572Y-92460000D01*
X182980000Y-92531429D01*
M02*
