G04 #@! TF.FileFunction,Copper,L2,Bot,Signal*
%FSLAX46Y46*%
G04 Gerber Fmt 4.6, Leading zero omitted, Abs format (unit mm)*
G04 Created by KiCad (PCBNEW 4.0.5+dfsg1-4) date Sun Aug 27 14:42:39 2017*
%MOMM*%
%LPD*%
G01*
G04 APERTURE LIST*
%ADD10C,0.100000*%
%ADD11C,1.600000*%
%ADD12C,1.800000*%
%ADD13C,4.000000*%
%ADD14C,0.254000*%
G04 APERTURE END LIST*
D10*
D11*
X208915000Y-115570000D03*
X211455000Y-115570000D03*
X213995000Y-115570000D03*
X216535000Y-115570000D03*
X213995000Y-95250000D03*
X216535000Y-95250000D03*
X219075000Y-95250000D03*
X208915000Y-95250000D03*
X206375000Y-95250000D03*
X211455000Y-95250000D03*
X187452000Y-108458000D03*
X189484000Y-116840000D03*
D12*
X198882000Y-118110000D03*
X192278000Y-118110000D03*
D11*
X201803000Y-104140000D03*
X199263000Y-104140000D03*
X201803000Y-88900000D03*
X196723000Y-104140000D03*
X194183000Y-104140000D03*
X191643000Y-104140000D03*
X189103000Y-104140000D03*
X186563000Y-104140000D03*
X184023000Y-104140000D03*
X181483000Y-104140000D03*
X178943000Y-104140000D03*
X176403000Y-104140000D03*
X173863000Y-104140000D03*
X199263000Y-88900000D03*
X196723000Y-88900000D03*
X194183000Y-88900000D03*
X191643000Y-88900000D03*
X189103000Y-88900000D03*
X186563000Y-88900000D03*
X184023000Y-88900000D03*
X181483000Y-88900000D03*
X178943000Y-88900000D03*
X176403000Y-88900000D03*
X173863000Y-88900000D03*
D12*
X198882000Y-113030000D03*
X192278000Y-113030000D03*
X202565000Y-112268000D03*
X202565000Y-118872000D03*
D11*
X201295000Y-122555000D03*
X198755000Y-122555000D03*
X195580000Y-108585000D03*
X198120000Y-108585000D03*
X193040000Y-108585000D03*
X200660000Y-108585000D03*
D13*
X193675000Y-122555000D03*
X217805000Y-89535000D03*
D14*
G36*
X216314342Y-87299853D02*
X215572458Y-88040443D01*
X215170458Y-89008567D01*
X215169543Y-90056834D01*
X215569853Y-91025658D01*
X216310443Y-91767542D01*
X217278567Y-92169542D01*
X218326834Y-92170457D01*
X219295658Y-91770147D01*
X220037542Y-91029557D01*
X220218000Y-90594966D01*
X220218000Y-94363827D01*
X219888923Y-94034176D01*
X219361691Y-93815250D01*
X218790813Y-93814752D01*
X218263200Y-94032757D01*
X217859176Y-94436077D01*
X217805138Y-94566215D01*
X217752243Y-94438200D01*
X217348923Y-94034176D01*
X216821691Y-93815250D01*
X216250813Y-93814752D01*
X215723200Y-94032757D01*
X215319176Y-94436077D01*
X215265138Y-94566215D01*
X215212243Y-94438200D01*
X214808923Y-94034176D01*
X214281691Y-93815250D01*
X213710813Y-93814752D01*
X213183200Y-94032757D01*
X212779176Y-94436077D01*
X212725138Y-94566215D01*
X212672243Y-94438200D01*
X212268923Y-94034176D01*
X211741691Y-93815250D01*
X211170813Y-93814752D01*
X210643200Y-94032757D01*
X210239176Y-94436077D01*
X210185138Y-94566215D01*
X210132243Y-94438200D01*
X209728923Y-94034176D01*
X209201691Y-93815250D01*
X208630813Y-93814752D01*
X208103200Y-94032757D01*
X207699176Y-94436077D01*
X207645138Y-94566215D01*
X207592243Y-94438200D01*
X207188923Y-94034176D01*
X206661691Y-93815250D01*
X206090813Y-93814752D01*
X205563200Y-94032757D01*
X205159176Y-94436077D01*
X204940250Y-94963309D01*
X204939752Y-95534187D01*
X205157757Y-96061800D01*
X205561077Y-96465824D01*
X206088309Y-96684750D01*
X206659187Y-96685248D01*
X207186800Y-96467243D01*
X207590824Y-96063923D01*
X207644862Y-95933785D01*
X207697757Y-96061800D01*
X208101077Y-96465824D01*
X208628309Y-96684750D01*
X209199187Y-96685248D01*
X209726800Y-96467243D01*
X210130824Y-96063923D01*
X210184862Y-95933785D01*
X210237757Y-96061800D01*
X210641077Y-96465824D01*
X211168309Y-96684750D01*
X211739187Y-96685248D01*
X212266800Y-96467243D01*
X212670824Y-96063923D01*
X212724862Y-95933785D01*
X212777757Y-96061800D01*
X213181077Y-96465824D01*
X213708309Y-96684750D01*
X214279187Y-96685248D01*
X214806800Y-96467243D01*
X215210824Y-96063923D01*
X215264862Y-95933785D01*
X215317757Y-96061800D01*
X215721077Y-96465824D01*
X216248309Y-96684750D01*
X216819187Y-96685248D01*
X217346800Y-96467243D01*
X217750824Y-96063923D01*
X217804862Y-95933785D01*
X217857757Y-96061800D01*
X218261077Y-96465824D01*
X218788309Y-96684750D01*
X219359187Y-96685248D01*
X219886800Y-96467243D01*
X220218000Y-96136620D01*
X220218000Y-124968000D01*
X194735221Y-124968000D01*
X195165658Y-124790147D01*
X195907542Y-124049557D01*
X196309542Y-123081433D01*
X196309753Y-122839187D01*
X197319752Y-122839187D01*
X197537757Y-123366800D01*
X197941077Y-123770824D01*
X198468309Y-123989750D01*
X199039187Y-123990248D01*
X199566800Y-123772243D01*
X199776663Y-123562745D01*
X200466861Y-123562745D01*
X200540995Y-123808864D01*
X201078223Y-124001965D01*
X201648454Y-123974778D01*
X202049005Y-123808864D01*
X202123139Y-123562745D01*
X201295000Y-122734605D01*
X200466861Y-123562745D01*
X199776663Y-123562745D01*
X199970824Y-123368923D01*
X200018448Y-123254232D01*
X200041136Y-123309005D01*
X200287255Y-123383139D01*
X201115395Y-122555000D01*
X201474605Y-122555000D01*
X202302745Y-123383139D01*
X202548864Y-123309005D01*
X202741965Y-122771777D01*
X202714778Y-122201546D01*
X202548864Y-121800995D01*
X202302745Y-121726861D01*
X201474605Y-122555000D01*
X201115395Y-122555000D01*
X200287255Y-121726861D01*
X200041136Y-121800995D01*
X200020195Y-121859254D01*
X199972243Y-121743200D01*
X199776640Y-121547255D01*
X200466861Y-121547255D01*
X201295000Y-122375395D01*
X202123139Y-121547255D01*
X202049005Y-121301136D01*
X201511777Y-121108035D01*
X200941546Y-121135222D01*
X200540995Y-121301136D01*
X200466861Y-121547255D01*
X199776640Y-121547255D01*
X199568923Y-121339176D01*
X199041691Y-121120250D01*
X198470813Y-121119752D01*
X197943200Y-121337757D01*
X197539176Y-121741077D01*
X197320250Y-122268309D01*
X197319752Y-122839187D01*
X196309753Y-122839187D01*
X196310457Y-122033166D01*
X195910147Y-121064342D01*
X195169557Y-120322458D01*
X194277778Y-119952159D01*
X201664446Y-119952159D01*
X201750852Y-120208643D01*
X202324336Y-120418458D01*
X202934460Y-120392839D01*
X203379148Y-120208643D01*
X203465554Y-119952159D01*
X202565000Y-119051605D01*
X201664446Y-119952159D01*
X194277778Y-119952159D01*
X194201433Y-119920458D01*
X193153166Y-119919543D01*
X192184342Y-120319853D01*
X191442458Y-121060443D01*
X191040458Y-122028567D01*
X191039543Y-123076834D01*
X191439853Y-124045658D01*
X192180443Y-124787542D01*
X192615034Y-124968000D01*
X172212000Y-124968000D01*
X172212000Y-118413991D01*
X190742735Y-118413991D01*
X190975932Y-118978371D01*
X191407357Y-119410551D01*
X191971330Y-119644733D01*
X192581991Y-119645265D01*
X193146371Y-119412068D01*
X193368668Y-119190159D01*
X197981446Y-119190159D01*
X198067852Y-119446643D01*
X198641336Y-119656458D01*
X199251460Y-119630839D01*
X199696148Y-119446643D01*
X199782554Y-119190159D01*
X198882000Y-118289605D01*
X197981446Y-119190159D01*
X193368668Y-119190159D01*
X193578551Y-118980643D01*
X193812733Y-118416670D01*
X193813209Y-117869336D01*
X197335542Y-117869336D01*
X197361161Y-118479460D01*
X197545357Y-118924148D01*
X197801841Y-119010554D01*
X198702395Y-118110000D01*
X199061605Y-118110000D01*
X199962159Y-119010554D01*
X200218643Y-118924148D01*
X200325771Y-118631336D01*
X201018542Y-118631336D01*
X201044161Y-119241460D01*
X201228357Y-119686148D01*
X201484841Y-119772554D01*
X202385395Y-118872000D01*
X202744605Y-118872000D01*
X203645159Y-119772554D01*
X203901643Y-119686148D01*
X204111458Y-119112664D01*
X204085839Y-118502540D01*
X203901643Y-118057852D01*
X203645159Y-117971446D01*
X202744605Y-118872000D01*
X202385395Y-118872000D01*
X201484841Y-117971446D01*
X201228357Y-118057852D01*
X201018542Y-118631336D01*
X200325771Y-118631336D01*
X200428458Y-118350664D01*
X200404994Y-117791841D01*
X201664446Y-117791841D01*
X202565000Y-118692395D01*
X203465554Y-117791841D01*
X203379148Y-117535357D01*
X202805664Y-117325542D01*
X202195540Y-117351161D01*
X201750852Y-117535357D01*
X201664446Y-117791841D01*
X200404994Y-117791841D01*
X200402839Y-117740540D01*
X200218643Y-117295852D01*
X199962159Y-117209446D01*
X199061605Y-118110000D01*
X198702395Y-118110000D01*
X197801841Y-117209446D01*
X197545357Y-117295852D01*
X197335542Y-117869336D01*
X193813209Y-117869336D01*
X193813265Y-117806009D01*
X193580068Y-117241629D01*
X193368650Y-117029841D01*
X197981446Y-117029841D01*
X198882000Y-117930395D01*
X199782554Y-117029841D01*
X199696148Y-116773357D01*
X199122664Y-116563542D01*
X198512540Y-116589161D01*
X198067852Y-116773357D01*
X197981446Y-117029841D01*
X193368650Y-117029841D01*
X193148643Y-116809449D01*
X192584670Y-116575267D01*
X191974009Y-116574735D01*
X191409629Y-116807932D01*
X190977449Y-117239357D01*
X190743267Y-117803330D01*
X190742735Y-118413991D01*
X172212000Y-118413991D01*
X172212000Y-117124187D01*
X188048752Y-117124187D01*
X188266757Y-117651800D01*
X188670077Y-118055824D01*
X189197309Y-118274750D01*
X189768187Y-118275248D01*
X190295800Y-118057243D01*
X190699824Y-117653923D01*
X190918750Y-117126691D01*
X190919248Y-116555813D01*
X190701243Y-116028200D01*
X190527534Y-115854187D01*
X207479752Y-115854187D01*
X207697757Y-116381800D01*
X208101077Y-116785824D01*
X208628309Y-117004750D01*
X209199187Y-117005248D01*
X209726800Y-116787243D01*
X210130824Y-116383923D01*
X210184862Y-116253785D01*
X210237757Y-116381800D01*
X210641077Y-116785824D01*
X211168309Y-117004750D01*
X211739187Y-117005248D01*
X212266800Y-116787243D01*
X212670824Y-116383923D01*
X212724862Y-116253785D01*
X212777757Y-116381800D01*
X213181077Y-116785824D01*
X213708309Y-117004750D01*
X214279187Y-117005248D01*
X214806800Y-116787243D01*
X215016663Y-116577745D01*
X215706861Y-116577745D01*
X215780995Y-116823864D01*
X216318223Y-117016965D01*
X216888454Y-116989778D01*
X217289005Y-116823864D01*
X217363139Y-116577745D01*
X216535000Y-115749605D01*
X215706861Y-116577745D01*
X215016663Y-116577745D01*
X215210824Y-116383923D01*
X215258448Y-116269232D01*
X215281136Y-116324005D01*
X215527255Y-116398139D01*
X216355395Y-115570000D01*
X216714605Y-115570000D01*
X217542745Y-116398139D01*
X217788864Y-116324005D01*
X217981965Y-115786777D01*
X217954778Y-115216546D01*
X217788864Y-114815995D01*
X217542745Y-114741861D01*
X216714605Y-115570000D01*
X216355395Y-115570000D01*
X215527255Y-114741861D01*
X215281136Y-114815995D01*
X215260195Y-114874254D01*
X215212243Y-114758200D01*
X215016640Y-114562255D01*
X215706861Y-114562255D01*
X216535000Y-115390395D01*
X217363139Y-114562255D01*
X217289005Y-114316136D01*
X216751777Y-114123035D01*
X216181546Y-114150222D01*
X215780995Y-114316136D01*
X215706861Y-114562255D01*
X215016640Y-114562255D01*
X214808923Y-114354176D01*
X214281691Y-114135250D01*
X213710813Y-114134752D01*
X213183200Y-114352757D01*
X212779176Y-114756077D01*
X212725138Y-114886215D01*
X212672243Y-114758200D01*
X212268923Y-114354176D01*
X211741691Y-114135250D01*
X211170813Y-114134752D01*
X210643200Y-114352757D01*
X210239176Y-114756077D01*
X210185138Y-114886215D01*
X210132243Y-114758200D01*
X209728923Y-114354176D01*
X209201691Y-114135250D01*
X208630813Y-114134752D01*
X208103200Y-114352757D01*
X207699176Y-114756077D01*
X207480250Y-115283309D01*
X207479752Y-115854187D01*
X190527534Y-115854187D01*
X190297923Y-115624176D01*
X189770691Y-115405250D01*
X189199813Y-115404752D01*
X188672200Y-115622757D01*
X188268176Y-116026077D01*
X188049250Y-116553309D01*
X188048752Y-117124187D01*
X172212000Y-117124187D01*
X172212000Y-113333991D01*
X190742735Y-113333991D01*
X190975932Y-113898371D01*
X191407357Y-114330551D01*
X191971330Y-114564733D01*
X192581991Y-114565265D01*
X193146371Y-114332068D01*
X193368668Y-114110159D01*
X197981446Y-114110159D01*
X198067852Y-114366643D01*
X198641336Y-114576458D01*
X199251460Y-114550839D01*
X199696148Y-114366643D01*
X199782554Y-114110159D01*
X198882000Y-113209605D01*
X197981446Y-114110159D01*
X193368668Y-114110159D01*
X193578551Y-113900643D01*
X193812733Y-113336670D01*
X193813209Y-112789336D01*
X197335542Y-112789336D01*
X197361161Y-113399460D01*
X197545357Y-113844148D01*
X197801841Y-113930554D01*
X198702395Y-113030000D01*
X199061605Y-113030000D01*
X199962159Y-113930554D01*
X200218643Y-113844148D01*
X200428458Y-113270664D01*
X200402839Y-112660540D01*
X200366161Y-112571991D01*
X201029735Y-112571991D01*
X201262932Y-113136371D01*
X201694357Y-113568551D01*
X202258330Y-113802733D01*
X202868991Y-113803265D01*
X203433371Y-113570068D01*
X203865551Y-113138643D01*
X204099733Y-112574670D01*
X204100265Y-111964009D01*
X203867068Y-111399629D01*
X203435643Y-110967449D01*
X202871670Y-110733267D01*
X202261009Y-110732735D01*
X201696629Y-110965932D01*
X201264449Y-111397357D01*
X201030267Y-111961330D01*
X201029735Y-112571991D01*
X200366161Y-112571991D01*
X200218643Y-112215852D01*
X199962159Y-112129446D01*
X199061605Y-113030000D01*
X198702395Y-113030000D01*
X197801841Y-112129446D01*
X197545357Y-112215852D01*
X197335542Y-112789336D01*
X193813209Y-112789336D01*
X193813265Y-112726009D01*
X193580068Y-112161629D01*
X193368650Y-111949841D01*
X197981446Y-111949841D01*
X198882000Y-112850395D01*
X199782554Y-111949841D01*
X199696148Y-111693357D01*
X199122664Y-111483542D01*
X198512540Y-111509161D01*
X198067852Y-111693357D01*
X197981446Y-111949841D01*
X193368650Y-111949841D01*
X193148643Y-111729449D01*
X192584670Y-111495267D01*
X191974009Y-111494735D01*
X191409629Y-111727932D01*
X190977449Y-112159357D01*
X190743267Y-112723330D01*
X190742735Y-113333991D01*
X172212000Y-113333991D01*
X172212000Y-108742187D01*
X186016752Y-108742187D01*
X186234757Y-109269800D01*
X186638077Y-109673824D01*
X187165309Y-109892750D01*
X187736187Y-109893248D01*
X188263800Y-109675243D01*
X188667824Y-109271923D01*
X188835054Y-108869187D01*
X191604752Y-108869187D01*
X191822757Y-109396800D01*
X192226077Y-109800824D01*
X192753309Y-110019750D01*
X193324187Y-110020248D01*
X193851800Y-109802243D01*
X194061663Y-109592745D01*
X194751861Y-109592745D01*
X194825995Y-109838864D01*
X195363223Y-110031965D01*
X195933454Y-110004778D01*
X196334005Y-109838864D01*
X196408139Y-109592745D01*
X195580000Y-108764605D01*
X194751861Y-109592745D01*
X194061663Y-109592745D01*
X194255824Y-109398923D01*
X194303448Y-109284232D01*
X194326136Y-109339005D01*
X194572255Y-109413139D01*
X195400395Y-108585000D01*
X195759605Y-108585000D01*
X196587745Y-109413139D01*
X196833864Y-109339005D01*
X196854805Y-109280746D01*
X196902757Y-109396800D01*
X197306077Y-109800824D01*
X197833309Y-110019750D01*
X198404187Y-110020248D01*
X198931800Y-109802243D01*
X199335824Y-109398923D01*
X199389862Y-109268785D01*
X199442757Y-109396800D01*
X199846077Y-109800824D01*
X200373309Y-110019750D01*
X200944187Y-110020248D01*
X201471800Y-109802243D01*
X201875824Y-109398923D01*
X202094750Y-108871691D01*
X202095248Y-108300813D01*
X201877243Y-107773200D01*
X201473923Y-107369176D01*
X200946691Y-107150250D01*
X200375813Y-107149752D01*
X199848200Y-107367757D01*
X199444176Y-107771077D01*
X199390138Y-107901215D01*
X199337243Y-107773200D01*
X198933923Y-107369176D01*
X198406691Y-107150250D01*
X197835813Y-107149752D01*
X197308200Y-107367757D01*
X196904176Y-107771077D01*
X196856552Y-107885768D01*
X196833864Y-107830995D01*
X196587745Y-107756861D01*
X195759605Y-108585000D01*
X195400395Y-108585000D01*
X194572255Y-107756861D01*
X194326136Y-107830995D01*
X194305195Y-107889254D01*
X194257243Y-107773200D01*
X194061640Y-107577255D01*
X194751861Y-107577255D01*
X195580000Y-108405395D01*
X196408139Y-107577255D01*
X196334005Y-107331136D01*
X195796777Y-107138035D01*
X195226546Y-107165222D01*
X194825995Y-107331136D01*
X194751861Y-107577255D01*
X194061640Y-107577255D01*
X193853923Y-107369176D01*
X193326691Y-107150250D01*
X192755813Y-107149752D01*
X192228200Y-107367757D01*
X191824176Y-107771077D01*
X191605250Y-108298309D01*
X191604752Y-108869187D01*
X188835054Y-108869187D01*
X188886750Y-108744691D01*
X188887248Y-108173813D01*
X188669243Y-107646200D01*
X188265923Y-107242176D01*
X187738691Y-107023250D01*
X187167813Y-107022752D01*
X186640200Y-107240757D01*
X186236176Y-107644077D01*
X186017250Y-108171309D01*
X186016752Y-108742187D01*
X172212000Y-108742187D01*
X172212000Y-104424187D01*
X172427752Y-104424187D01*
X172645757Y-104951800D01*
X173049077Y-105355824D01*
X173576309Y-105574750D01*
X174147187Y-105575248D01*
X174674800Y-105357243D01*
X175078824Y-104953923D01*
X175132862Y-104823785D01*
X175185757Y-104951800D01*
X175589077Y-105355824D01*
X176116309Y-105574750D01*
X176687187Y-105575248D01*
X177214800Y-105357243D01*
X177618824Y-104953923D01*
X177672862Y-104823785D01*
X177725757Y-104951800D01*
X178129077Y-105355824D01*
X178656309Y-105574750D01*
X179227187Y-105575248D01*
X179754800Y-105357243D01*
X180158824Y-104953923D01*
X180212862Y-104823785D01*
X180265757Y-104951800D01*
X180669077Y-105355824D01*
X181196309Y-105574750D01*
X181767187Y-105575248D01*
X182294800Y-105357243D01*
X182698824Y-104953923D01*
X182752862Y-104823785D01*
X182805757Y-104951800D01*
X183209077Y-105355824D01*
X183736309Y-105574750D01*
X184307187Y-105575248D01*
X184834800Y-105357243D01*
X185238824Y-104953923D01*
X185292862Y-104823785D01*
X185345757Y-104951800D01*
X185749077Y-105355824D01*
X186276309Y-105574750D01*
X186847187Y-105575248D01*
X187374800Y-105357243D01*
X187778824Y-104953923D01*
X187832862Y-104823785D01*
X187885757Y-104951800D01*
X188289077Y-105355824D01*
X188816309Y-105574750D01*
X189387187Y-105575248D01*
X189914800Y-105357243D01*
X190318824Y-104953923D01*
X190372862Y-104823785D01*
X190425757Y-104951800D01*
X190829077Y-105355824D01*
X191356309Y-105574750D01*
X191927187Y-105575248D01*
X192454800Y-105357243D01*
X192858824Y-104953923D01*
X192912862Y-104823785D01*
X192965757Y-104951800D01*
X193369077Y-105355824D01*
X193896309Y-105574750D01*
X194467187Y-105575248D01*
X194994800Y-105357243D01*
X195398824Y-104953923D01*
X195452862Y-104823785D01*
X195505757Y-104951800D01*
X195909077Y-105355824D01*
X196436309Y-105574750D01*
X197007187Y-105575248D01*
X197534800Y-105357243D01*
X197938824Y-104953923D01*
X197992862Y-104823785D01*
X198045757Y-104951800D01*
X198449077Y-105355824D01*
X198976309Y-105574750D01*
X199547187Y-105575248D01*
X200074800Y-105357243D01*
X200478824Y-104953923D01*
X200532862Y-104823785D01*
X200585757Y-104951800D01*
X200989077Y-105355824D01*
X201516309Y-105574750D01*
X202087187Y-105575248D01*
X202614800Y-105357243D01*
X203018824Y-104953923D01*
X203237750Y-104426691D01*
X203238248Y-103855813D01*
X203020243Y-103328200D01*
X202616923Y-102924176D01*
X202089691Y-102705250D01*
X201518813Y-102704752D01*
X200991200Y-102922757D01*
X200587176Y-103326077D01*
X200533138Y-103456215D01*
X200480243Y-103328200D01*
X200076923Y-102924176D01*
X199549691Y-102705250D01*
X198978813Y-102704752D01*
X198451200Y-102922757D01*
X198047176Y-103326077D01*
X197993138Y-103456215D01*
X197940243Y-103328200D01*
X197536923Y-102924176D01*
X197009691Y-102705250D01*
X196438813Y-102704752D01*
X195911200Y-102922757D01*
X195507176Y-103326077D01*
X195453138Y-103456215D01*
X195400243Y-103328200D01*
X194996923Y-102924176D01*
X194469691Y-102705250D01*
X193898813Y-102704752D01*
X193371200Y-102922757D01*
X192967176Y-103326077D01*
X192913138Y-103456215D01*
X192860243Y-103328200D01*
X192456923Y-102924176D01*
X191929691Y-102705250D01*
X191358813Y-102704752D01*
X190831200Y-102922757D01*
X190427176Y-103326077D01*
X190373138Y-103456215D01*
X190320243Y-103328200D01*
X189916923Y-102924176D01*
X189389691Y-102705250D01*
X188818813Y-102704752D01*
X188291200Y-102922757D01*
X187887176Y-103326077D01*
X187833138Y-103456215D01*
X187780243Y-103328200D01*
X187376923Y-102924176D01*
X186849691Y-102705250D01*
X186278813Y-102704752D01*
X185751200Y-102922757D01*
X185347176Y-103326077D01*
X185293138Y-103456215D01*
X185240243Y-103328200D01*
X184836923Y-102924176D01*
X184309691Y-102705250D01*
X183738813Y-102704752D01*
X183211200Y-102922757D01*
X182807176Y-103326077D01*
X182753138Y-103456215D01*
X182700243Y-103328200D01*
X182296923Y-102924176D01*
X181769691Y-102705250D01*
X181198813Y-102704752D01*
X180671200Y-102922757D01*
X180267176Y-103326077D01*
X180213138Y-103456215D01*
X180160243Y-103328200D01*
X179756923Y-102924176D01*
X179229691Y-102705250D01*
X178658813Y-102704752D01*
X178131200Y-102922757D01*
X177727176Y-103326077D01*
X177673138Y-103456215D01*
X177620243Y-103328200D01*
X177216923Y-102924176D01*
X176689691Y-102705250D01*
X176118813Y-102704752D01*
X175591200Y-102922757D01*
X175187176Y-103326077D01*
X175133138Y-103456215D01*
X175080243Y-103328200D01*
X174676923Y-102924176D01*
X174149691Y-102705250D01*
X173578813Y-102704752D01*
X173051200Y-102922757D01*
X172647176Y-103326077D01*
X172428250Y-103853309D01*
X172427752Y-104424187D01*
X172212000Y-104424187D01*
X172212000Y-89184187D01*
X172427752Y-89184187D01*
X172645757Y-89711800D01*
X173049077Y-90115824D01*
X173576309Y-90334750D01*
X174147187Y-90335248D01*
X174674800Y-90117243D01*
X174884663Y-89907745D01*
X175574861Y-89907745D01*
X175648995Y-90153864D01*
X176186223Y-90346965D01*
X176756454Y-90319778D01*
X177157005Y-90153864D01*
X177231139Y-89907745D01*
X176403000Y-89079605D01*
X175574861Y-89907745D01*
X174884663Y-89907745D01*
X175078824Y-89713923D01*
X175126448Y-89599232D01*
X175149136Y-89654005D01*
X175395255Y-89728139D01*
X176223395Y-88900000D01*
X176582605Y-88900000D01*
X177410745Y-89728139D01*
X177656864Y-89654005D01*
X177677805Y-89595746D01*
X177725757Y-89711800D01*
X178129077Y-90115824D01*
X178656309Y-90334750D01*
X179227187Y-90335248D01*
X179754800Y-90117243D01*
X180158824Y-89713923D01*
X180212862Y-89583785D01*
X180265757Y-89711800D01*
X180669077Y-90115824D01*
X181196309Y-90334750D01*
X181767187Y-90335248D01*
X182294800Y-90117243D01*
X182698824Y-89713923D01*
X182752862Y-89583785D01*
X182805757Y-89711800D01*
X183209077Y-90115824D01*
X183736309Y-90334750D01*
X184307187Y-90335248D01*
X184834800Y-90117243D01*
X185238824Y-89713923D01*
X185292862Y-89583785D01*
X185345757Y-89711800D01*
X185749077Y-90115824D01*
X186276309Y-90334750D01*
X186847187Y-90335248D01*
X187374800Y-90117243D01*
X187778824Y-89713923D01*
X187832862Y-89583785D01*
X187885757Y-89711800D01*
X188289077Y-90115824D01*
X188816309Y-90334750D01*
X189387187Y-90335248D01*
X189914800Y-90117243D01*
X190318824Y-89713923D01*
X190372862Y-89583785D01*
X190425757Y-89711800D01*
X190829077Y-90115824D01*
X191356309Y-90334750D01*
X191927187Y-90335248D01*
X192454800Y-90117243D01*
X192858824Y-89713923D01*
X192912862Y-89583785D01*
X192965757Y-89711800D01*
X193369077Y-90115824D01*
X193896309Y-90334750D01*
X194467187Y-90335248D01*
X194994800Y-90117243D01*
X195398824Y-89713923D01*
X195452862Y-89583785D01*
X195505757Y-89711800D01*
X195909077Y-90115824D01*
X196436309Y-90334750D01*
X197007187Y-90335248D01*
X197534800Y-90117243D01*
X197938824Y-89713923D01*
X197992862Y-89583785D01*
X198045757Y-89711800D01*
X198449077Y-90115824D01*
X198976309Y-90334750D01*
X199547187Y-90335248D01*
X200074800Y-90117243D01*
X200478824Y-89713923D01*
X200532862Y-89583785D01*
X200585757Y-89711800D01*
X200989077Y-90115824D01*
X201516309Y-90334750D01*
X202087187Y-90335248D01*
X202614800Y-90117243D01*
X203018824Y-89713923D01*
X203237750Y-89186691D01*
X203238248Y-88615813D01*
X203020243Y-88088200D01*
X202616923Y-87684176D01*
X202089691Y-87465250D01*
X201518813Y-87464752D01*
X200991200Y-87682757D01*
X200587176Y-88086077D01*
X200533138Y-88216215D01*
X200480243Y-88088200D01*
X200076923Y-87684176D01*
X199549691Y-87465250D01*
X198978813Y-87464752D01*
X198451200Y-87682757D01*
X198047176Y-88086077D01*
X197993138Y-88216215D01*
X197940243Y-88088200D01*
X197536923Y-87684176D01*
X197009691Y-87465250D01*
X196438813Y-87464752D01*
X195911200Y-87682757D01*
X195507176Y-88086077D01*
X195453138Y-88216215D01*
X195400243Y-88088200D01*
X194996923Y-87684176D01*
X194469691Y-87465250D01*
X193898813Y-87464752D01*
X193371200Y-87682757D01*
X192967176Y-88086077D01*
X192913138Y-88216215D01*
X192860243Y-88088200D01*
X192456923Y-87684176D01*
X191929691Y-87465250D01*
X191358813Y-87464752D01*
X190831200Y-87682757D01*
X190427176Y-88086077D01*
X190373138Y-88216215D01*
X190320243Y-88088200D01*
X189916923Y-87684176D01*
X189389691Y-87465250D01*
X188818813Y-87464752D01*
X188291200Y-87682757D01*
X187887176Y-88086077D01*
X187833138Y-88216215D01*
X187780243Y-88088200D01*
X187376923Y-87684176D01*
X186849691Y-87465250D01*
X186278813Y-87464752D01*
X185751200Y-87682757D01*
X185347176Y-88086077D01*
X185293138Y-88216215D01*
X185240243Y-88088200D01*
X184836923Y-87684176D01*
X184309691Y-87465250D01*
X183738813Y-87464752D01*
X183211200Y-87682757D01*
X182807176Y-88086077D01*
X182753138Y-88216215D01*
X182700243Y-88088200D01*
X182296923Y-87684176D01*
X181769691Y-87465250D01*
X181198813Y-87464752D01*
X180671200Y-87682757D01*
X180267176Y-88086077D01*
X180213138Y-88216215D01*
X180160243Y-88088200D01*
X179756923Y-87684176D01*
X179229691Y-87465250D01*
X178658813Y-87464752D01*
X178131200Y-87682757D01*
X177727176Y-88086077D01*
X177679552Y-88200768D01*
X177656864Y-88145995D01*
X177410745Y-88071861D01*
X176582605Y-88900000D01*
X176223395Y-88900000D01*
X175395255Y-88071861D01*
X175149136Y-88145995D01*
X175128195Y-88204254D01*
X175080243Y-88088200D01*
X174884640Y-87892255D01*
X175574861Y-87892255D01*
X176403000Y-88720395D01*
X177231139Y-87892255D01*
X177157005Y-87646136D01*
X176619777Y-87453035D01*
X176049546Y-87480222D01*
X175648995Y-87646136D01*
X175574861Y-87892255D01*
X174884640Y-87892255D01*
X174676923Y-87684176D01*
X174149691Y-87465250D01*
X173578813Y-87464752D01*
X173051200Y-87682757D01*
X172647176Y-88086077D01*
X172428250Y-88613309D01*
X172427752Y-89184187D01*
X172212000Y-89184187D01*
X172212000Y-87122000D01*
X216744779Y-87122000D01*
X216314342Y-87299853D01*
X216314342Y-87299853D01*
G37*
X216314342Y-87299853D02*
X215572458Y-88040443D01*
X215170458Y-89008567D01*
X215169543Y-90056834D01*
X215569853Y-91025658D01*
X216310443Y-91767542D01*
X217278567Y-92169542D01*
X218326834Y-92170457D01*
X219295658Y-91770147D01*
X220037542Y-91029557D01*
X220218000Y-90594966D01*
X220218000Y-94363827D01*
X219888923Y-94034176D01*
X219361691Y-93815250D01*
X218790813Y-93814752D01*
X218263200Y-94032757D01*
X217859176Y-94436077D01*
X217805138Y-94566215D01*
X217752243Y-94438200D01*
X217348923Y-94034176D01*
X216821691Y-93815250D01*
X216250813Y-93814752D01*
X215723200Y-94032757D01*
X215319176Y-94436077D01*
X215265138Y-94566215D01*
X215212243Y-94438200D01*
X214808923Y-94034176D01*
X214281691Y-93815250D01*
X213710813Y-93814752D01*
X213183200Y-94032757D01*
X212779176Y-94436077D01*
X212725138Y-94566215D01*
X212672243Y-94438200D01*
X212268923Y-94034176D01*
X211741691Y-93815250D01*
X211170813Y-93814752D01*
X210643200Y-94032757D01*
X210239176Y-94436077D01*
X210185138Y-94566215D01*
X210132243Y-94438200D01*
X209728923Y-94034176D01*
X209201691Y-93815250D01*
X208630813Y-93814752D01*
X208103200Y-94032757D01*
X207699176Y-94436077D01*
X207645138Y-94566215D01*
X207592243Y-94438200D01*
X207188923Y-94034176D01*
X206661691Y-93815250D01*
X206090813Y-93814752D01*
X205563200Y-94032757D01*
X205159176Y-94436077D01*
X204940250Y-94963309D01*
X204939752Y-95534187D01*
X205157757Y-96061800D01*
X205561077Y-96465824D01*
X206088309Y-96684750D01*
X206659187Y-96685248D01*
X207186800Y-96467243D01*
X207590824Y-96063923D01*
X207644862Y-95933785D01*
X207697757Y-96061800D01*
X208101077Y-96465824D01*
X208628309Y-96684750D01*
X209199187Y-96685248D01*
X209726800Y-96467243D01*
X210130824Y-96063923D01*
X210184862Y-95933785D01*
X210237757Y-96061800D01*
X210641077Y-96465824D01*
X211168309Y-96684750D01*
X211739187Y-96685248D01*
X212266800Y-96467243D01*
X212670824Y-96063923D01*
X212724862Y-95933785D01*
X212777757Y-96061800D01*
X213181077Y-96465824D01*
X213708309Y-96684750D01*
X214279187Y-96685248D01*
X214806800Y-96467243D01*
X215210824Y-96063923D01*
X215264862Y-95933785D01*
X215317757Y-96061800D01*
X215721077Y-96465824D01*
X216248309Y-96684750D01*
X216819187Y-96685248D01*
X217346800Y-96467243D01*
X217750824Y-96063923D01*
X217804862Y-95933785D01*
X217857757Y-96061800D01*
X218261077Y-96465824D01*
X218788309Y-96684750D01*
X219359187Y-96685248D01*
X219886800Y-96467243D01*
X220218000Y-96136620D01*
X220218000Y-124968000D01*
X194735221Y-124968000D01*
X195165658Y-124790147D01*
X195907542Y-124049557D01*
X196309542Y-123081433D01*
X196309753Y-122839187D01*
X197319752Y-122839187D01*
X197537757Y-123366800D01*
X197941077Y-123770824D01*
X198468309Y-123989750D01*
X199039187Y-123990248D01*
X199566800Y-123772243D01*
X199776663Y-123562745D01*
X200466861Y-123562745D01*
X200540995Y-123808864D01*
X201078223Y-124001965D01*
X201648454Y-123974778D01*
X202049005Y-123808864D01*
X202123139Y-123562745D01*
X201295000Y-122734605D01*
X200466861Y-123562745D01*
X199776663Y-123562745D01*
X199970824Y-123368923D01*
X200018448Y-123254232D01*
X200041136Y-123309005D01*
X200287255Y-123383139D01*
X201115395Y-122555000D01*
X201474605Y-122555000D01*
X202302745Y-123383139D01*
X202548864Y-123309005D01*
X202741965Y-122771777D01*
X202714778Y-122201546D01*
X202548864Y-121800995D01*
X202302745Y-121726861D01*
X201474605Y-122555000D01*
X201115395Y-122555000D01*
X200287255Y-121726861D01*
X200041136Y-121800995D01*
X200020195Y-121859254D01*
X199972243Y-121743200D01*
X199776640Y-121547255D01*
X200466861Y-121547255D01*
X201295000Y-122375395D01*
X202123139Y-121547255D01*
X202049005Y-121301136D01*
X201511777Y-121108035D01*
X200941546Y-121135222D01*
X200540995Y-121301136D01*
X200466861Y-121547255D01*
X199776640Y-121547255D01*
X199568923Y-121339176D01*
X199041691Y-121120250D01*
X198470813Y-121119752D01*
X197943200Y-121337757D01*
X197539176Y-121741077D01*
X197320250Y-122268309D01*
X197319752Y-122839187D01*
X196309753Y-122839187D01*
X196310457Y-122033166D01*
X195910147Y-121064342D01*
X195169557Y-120322458D01*
X194277778Y-119952159D01*
X201664446Y-119952159D01*
X201750852Y-120208643D01*
X202324336Y-120418458D01*
X202934460Y-120392839D01*
X203379148Y-120208643D01*
X203465554Y-119952159D01*
X202565000Y-119051605D01*
X201664446Y-119952159D01*
X194277778Y-119952159D01*
X194201433Y-119920458D01*
X193153166Y-119919543D01*
X192184342Y-120319853D01*
X191442458Y-121060443D01*
X191040458Y-122028567D01*
X191039543Y-123076834D01*
X191439853Y-124045658D01*
X192180443Y-124787542D01*
X192615034Y-124968000D01*
X172212000Y-124968000D01*
X172212000Y-118413991D01*
X190742735Y-118413991D01*
X190975932Y-118978371D01*
X191407357Y-119410551D01*
X191971330Y-119644733D01*
X192581991Y-119645265D01*
X193146371Y-119412068D01*
X193368668Y-119190159D01*
X197981446Y-119190159D01*
X198067852Y-119446643D01*
X198641336Y-119656458D01*
X199251460Y-119630839D01*
X199696148Y-119446643D01*
X199782554Y-119190159D01*
X198882000Y-118289605D01*
X197981446Y-119190159D01*
X193368668Y-119190159D01*
X193578551Y-118980643D01*
X193812733Y-118416670D01*
X193813209Y-117869336D01*
X197335542Y-117869336D01*
X197361161Y-118479460D01*
X197545357Y-118924148D01*
X197801841Y-119010554D01*
X198702395Y-118110000D01*
X199061605Y-118110000D01*
X199962159Y-119010554D01*
X200218643Y-118924148D01*
X200325771Y-118631336D01*
X201018542Y-118631336D01*
X201044161Y-119241460D01*
X201228357Y-119686148D01*
X201484841Y-119772554D01*
X202385395Y-118872000D01*
X202744605Y-118872000D01*
X203645159Y-119772554D01*
X203901643Y-119686148D01*
X204111458Y-119112664D01*
X204085839Y-118502540D01*
X203901643Y-118057852D01*
X203645159Y-117971446D01*
X202744605Y-118872000D01*
X202385395Y-118872000D01*
X201484841Y-117971446D01*
X201228357Y-118057852D01*
X201018542Y-118631336D01*
X200325771Y-118631336D01*
X200428458Y-118350664D01*
X200404994Y-117791841D01*
X201664446Y-117791841D01*
X202565000Y-118692395D01*
X203465554Y-117791841D01*
X203379148Y-117535357D01*
X202805664Y-117325542D01*
X202195540Y-117351161D01*
X201750852Y-117535357D01*
X201664446Y-117791841D01*
X200404994Y-117791841D01*
X200402839Y-117740540D01*
X200218643Y-117295852D01*
X199962159Y-117209446D01*
X199061605Y-118110000D01*
X198702395Y-118110000D01*
X197801841Y-117209446D01*
X197545357Y-117295852D01*
X197335542Y-117869336D01*
X193813209Y-117869336D01*
X193813265Y-117806009D01*
X193580068Y-117241629D01*
X193368650Y-117029841D01*
X197981446Y-117029841D01*
X198882000Y-117930395D01*
X199782554Y-117029841D01*
X199696148Y-116773357D01*
X199122664Y-116563542D01*
X198512540Y-116589161D01*
X198067852Y-116773357D01*
X197981446Y-117029841D01*
X193368650Y-117029841D01*
X193148643Y-116809449D01*
X192584670Y-116575267D01*
X191974009Y-116574735D01*
X191409629Y-116807932D01*
X190977449Y-117239357D01*
X190743267Y-117803330D01*
X190742735Y-118413991D01*
X172212000Y-118413991D01*
X172212000Y-117124187D01*
X188048752Y-117124187D01*
X188266757Y-117651800D01*
X188670077Y-118055824D01*
X189197309Y-118274750D01*
X189768187Y-118275248D01*
X190295800Y-118057243D01*
X190699824Y-117653923D01*
X190918750Y-117126691D01*
X190919248Y-116555813D01*
X190701243Y-116028200D01*
X190527534Y-115854187D01*
X207479752Y-115854187D01*
X207697757Y-116381800D01*
X208101077Y-116785824D01*
X208628309Y-117004750D01*
X209199187Y-117005248D01*
X209726800Y-116787243D01*
X210130824Y-116383923D01*
X210184862Y-116253785D01*
X210237757Y-116381800D01*
X210641077Y-116785824D01*
X211168309Y-117004750D01*
X211739187Y-117005248D01*
X212266800Y-116787243D01*
X212670824Y-116383923D01*
X212724862Y-116253785D01*
X212777757Y-116381800D01*
X213181077Y-116785824D01*
X213708309Y-117004750D01*
X214279187Y-117005248D01*
X214806800Y-116787243D01*
X215016663Y-116577745D01*
X215706861Y-116577745D01*
X215780995Y-116823864D01*
X216318223Y-117016965D01*
X216888454Y-116989778D01*
X217289005Y-116823864D01*
X217363139Y-116577745D01*
X216535000Y-115749605D01*
X215706861Y-116577745D01*
X215016663Y-116577745D01*
X215210824Y-116383923D01*
X215258448Y-116269232D01*
X215281136Y-116324005D01*
X215527255Y-116398139D01*
X216355395Y-115570000D01*
X216714605Y-115570000D01*
X217542745Y-116398139D01*
X217788864Y-116324005D01*
X217981965Y-115786777D01*
X217954778Y-115216546D01*
X217788864Y-114815995D01*
X217542745Y-114741861D01*
X216714605Y-115570000D01*
X216355395Y-115570000D01*
X215527255Y-114741861D01*
X215281136Y-114815995D01*
X215260195Y-114874254D01*
X215212243Y-114758200D01*
X215016640Y-114562255D01*
X215706861Y-114562255D01*
X216535000Y-115390395D01*
X217363139Y-114562255D01*
X217289005Y-114316136D01*
X216751777Y-114123035D01*
X216181546Y-114150222D01*
X215780995Y-114316136D01*
X215706861Y-114562255D01*
X215016640Y-114562255D01*
X214808923Y-114354176D01*
X214281691Y-114135250D01*
X213710813Y-114134752D01*
X213183200Y-114352757D01*
X212779176Y-114756077D01*
X212725138Y-114886215D01*
X212672243Y-114758200D01*
X212268923Y-114354176D01*
X211741691Y-114135250D01*
X211170813Y-114134752D01*
X210643200Y-114352757D01*
X210239176Y-114756077D01*
X210185138Y-114886215D01*
X210132243Y-114758200D01*
X209728923Y-114354176D01*
X209201691Y-114135250D01*
X208630813Y-114134752D01*
X208103200Y-114352757D01*
X207699176Y-114756077D01*
X207480250Y-115283309D01*
X207479752Y-115854187D01*
X190527534Y-115854187D01*
X190297923Y-115624176D01*
X189770691Y-115405250D01*
X189199813Y-115404752D01*
X188672200Y-115622757D01*
X188268176Y-116026077D01*
X188049250Y-116553309D01*
X188048752Y-117124187D01*
X172212000Y-117124187D01*
X172212000Y-113333991D01*
X190742735Y-113333991D01*
X190975932Y-113898371D01*
X191407357Y-114330551D01*
X191971330Y-114564733D01*
X192581991Y-114565265D01*
X193146371Y-114332068D01*
X193368668Y-114110159D01*
X197981446Y-114110159D01*
X198067852Y-114366643D01*
X198641336Y-114576458D01*
X199251460Y-114550839D01*
X199696148Y-114366643D01*
X199782554Y-114110159D01*
X198882000Y-113209605D01*
X197981446Y-114110159D01*
X193368668Y-114110159D01*
X193578551Y-113900643D01*
X193812733Y-113336670D01*
X193813209Y-112789336D01*
X197335542Y-112789336D01*
X197361161Y-113399460D01*
X197545357Y-113844148D01*
X197801841Y-113930554D01*
X198702395Y-113030000D01*
X199061605Y-113030000D01*
X199962159Y-113930554D01*
X200218643Y-113844148D01*
X200428458Y-113270664D01*
X200402839Y-112660540D01*
X200366161Y-112571991D01*
X201029735Y-112571991D01*
X201262932Y-113136371D01*
X201694357Y-113568551D01*
X202258330Y-113802733D01*
X202868991Y-113803265D01*
X203433371Y-113570068D01*
X203865551Y-113138643D01*
X204099733Y-112574670D01*
X204100265Y-111964009D01*
X203867068Y-111399629D01*
X203435643Y-110967449D01*
X202871670Y-110733267D01*
X202261009Y-110732735D01*
X201696629Y-110965932D01*
X201264449Y-111397357D01*
X201030267Y-111961330D01*
X201029735Y-112571991D01*
X200366161Y-112571991D01*
X200218643Y-112215852D01*
X199962159Y-112129446D01*
X199061605Y-113030000D01*
X198702395Y-113030000D01*
X197801841Y-112129446D01*
X197545357Y-112215852D01*
X197335542Y-112789336D01*
X193813209Y-112789336D01*
X193813265Y-112726009D01*
X193580068Y-112161629D01*
X193368650Y-111949841D01*
X197981446Y-111949841D01*
X198882000Y-112850395D01*
X199782554Y-111949841D01*
X199696148Y-111693357D01*
X199122664Y-111483542D01*
X198512540Y-111509161D01*
X198067852Y-111693357D01*
X197981446Y-111949841D01*
X193368650Y-111949841D01*
X193148643Y-111729449D01*
X192584670Y-111495267D01*
X191974009Y-111494735D01*
X191409629Y-111727932D01*
X190977449Y-112159357D01*
X190743267Y-112723330D01*
X190742735Y-113333991D01*
X172212000Y-113333991D01*
X172212000Y-108742187D01*
X186016752Y-108742187D01*
X186234757Y-109269800D01*
X186638077Y-109673824D01*
X187165309Y-109892750D01*
X187736187Y-109893248D01*
X188263800Y-109675243D01*
X188667824Y-109271923D01*
X188835054Y-108869187D01*
X191604752Y-108869187D01*
X191822757Y-109396800D01*
X192226077Y-109800824D01*
X192753309Y-110019750D01*
X193324187Y-110020248D01*
X193851800Y-109802243D01*
X194061663Y-109592745D01*
X194751861Y-109592745D01*
X194825995Y-109838864D01*
X195363223Y-110031965D01*
X195933454Y-110004778D01*
X196334005Y-109838864D01*
X196408139Y-109592745D01*
X195580000Y-108764605D01*
X194751861Y-109592745D01*
X194061663Y-109592745D01*
X194255824Y-109398923D01*
X194303448Y-109284232D01*
X194326136Y-109339005D01*
X194572255Y-109413139D01*
X195400395Y-108585000D01*
X195759605Y-108585000D01*
X196587745Y-109413139D01*
X196833864Y-109339005D01*
X196854805Y-109280746D01*
X196902757Y-109396800D01*
X197306077Y-109800824D01*
X197833309Y-110019750D01*
X198404187Y-110020248D01*
X198931800Y-109802243D01*
X199335824Y-109398923D01*
X199389862Y-109268785D01*
X199442757Y-109396800D01*
X199846077Y-109800824D01*
X200373309Y-110019750D01*
X200944187Y-110020248D01*
X201471800Y-109802243D01*
X201875824Y-109398923D01*
X202094750Y-108871691D01*
X202095248Y-108300813D01*
X201877243Y-107773200D01*
X201473923Y-107369176D01*
X200946691Y-107150250D01*
X200375813Y-107149752D01*
X199848200Y-107367757D01*
X199444176Y-107771077D01*
X199390138Y-107901215D01*
X199337243Y-107773200D01*
X198933923Y-107369176D01*
X198406691Y-107150250D01*
X197835813Y-107149752D01*
X197308200Y-107367757D01*
X196904176Y-107771077D01*
X196856552Y-107885768D01*
X196833864Y-107830995D01*
X196587745Y-107756861D01*
X195759605Y-108585000D01*
X195400395Y-108585000D01*
X194572255Y-107756861D01*
X194326136Y-107830995D01*
X194305195Y-107889254D01*
X194257243Y-107773200D01*
X194061640Y-107577255D01*
X194751861Y-107577255D01*
X195580000Y-108405395D01*
X196408139Y-107577255D01*
X196334005Y-107331136D01*
X195796777Y-107138035D01*
X195226546Y-107165222D01*
X194825995Y-107331136D01*
X194751861Y-107577255D01*
X194061640Y-107577255D01*
X193853923Y-107369176D01*
X193326691Y-107150250D01*
X192755813Y-107149752D01*
X192228200Y-107367757D01*
X191824176Y-107771077D01*
X191605250Y-108298309D01*
X191604752Y-108869187D01*
X188835054Y-108869187D01*
X188886750Y-108744691D01*
X188887248Y-108173813D01*
X188669243Y-107646200D01*
X188265923Y-107242176D01*
X187738691Y-107023250D01*
X187167813Y-107022752D01*
X186640200Y-107240757D01*
X186236176Y-107644077D01*
X186017250Y-108171309D01*
X186016752Y-108742187D01*
X172212000Y-108742187D01*
X172212000Y-104424187D01*
X172427752Y-104424187D01*
X172645757Y-104951800D01*
X173049077Y-105355824D01*
X173576309Y-105574750D01*
X174147187Y-105575248D01*
X174674800Y-105357243D01*
X175078824Y-104953923D01*
X175132862Y-104823785D01*
X175185757Y-104951800D01*
X175589077Y-105355824D01*
X176116309Y-105574750D01*
X176687187Y-105575248D01*
X177214800Y-105357243D01*
X177618824Y-104953923D01*
X177672862Y-104823785D01*
X177725757Y-104951800D01*
X178129077Y-105355824D01*
X178656309Y-105574750D01*
X179227187Y-105575248D01*
X179754800Y-105357243D01*
X180158824Y-104953923D01*
X180212862Y-104823785D01*
X180265757Y-104951800D01*
X180669077Y-105355824D01*
X181196309Y-105574750D01*
X181767187Y-105575248D01*
X182294800Y-105357243D01*
X182698824Y-104953923D01*
X182752862Y-104823785D01*
X182805757Y-104951800D01*
X183209077Y-105355824D01*
X183736309Y-105574750D01*
X184307187Y-105575248D01*
X184834800Y-105357243D01*
X185238824Y-104953923D01*
X185292862Y-104823785D01*
X185345757Y-104951800D01*
X185749077Y-105355824D01*
X186276309Y-105574750D01*
X186847187Y-105575248D01*
X187374800Y-105357243D01*
X187778824Y-104953923D01*
X187832862Y-104823785D01*
X187885757Y-104951800D01*
X188289077Y-105355824D01*
X188816309Y-105574750D01*
X189387187Y-105575248D01*
X189914800Y-105357243D01*
X190318824Y-104953923D01*
X190372862Y-104823785D01*
X190425757Y-104951800D01*
X190829077Y-105355824D01*
X191356309Y-105574750D01*
X191927187Y-105575248D01*
X192454800Y-105357243D01*
X192858824Y-104953923D01*
X192912862Y-104823785D01*
X192965757Y-104951800D01*
X193369077Y-105355824D01*
X193896309Y-105574750D01*
X194467187Y-105575248D01*
X194994800Y-105357243D01*
X195398824Y-104953923D01*
X195452862Y-104823785D01*
X195505757Y-104951800D01*
X195909077Y-105355824D01*
X196436309Y-105574750D01*
X197007187Y-105575248D01*
X197534800Y-105357243D01*
X197938824Y-104953923D01*
X197992862Y-104823785D01*
X198045757Y-104951800D01*
X198449077Y-105355824D01*
X198976309Y-105574750D01*
X199547187Y-105575248D01*
X200074800Y-105357243D01*
X200478824Y-104953923D01*
X200532862Y-104823785D01*
X200585757Y-104951800D01*
X200989077Y-105355824D01*
X201516309Y-105574750D01*
X202087187Y-105575248D01*
X202614800Y-105357243D01*
X203018824Y-104953923D01*
X203237750Y-104426691D01*
X203238248Y-103855813D01*
X203020243Y-103328200D01*
X202616923Y-102924176D01*
X202089691Y-102705250D01*
X201518813Y-102704752D01*
X200991200Y-102922757D01*
X200587176Y-103326077D01*
X200533138Y-103456215D01*
X200480243Y-103328200D01*
X200076923Y-102924176D01*
X199549691Y-102705250D01*
X198978813Y-102704752D01*
X198451200Y-102922757D01*
X198047176Y-103326077D01*
X197993138Y-103456215D01*
X197940243Y-103328200D01*
X197536923Y-102924176D01*
X197009691Y-102705250D01*
X196438813Y-102704752D01*
X195911200Y-102922757D01*
X195507176Y-103326077D01*
X195453138Y-103456215D01*
X195400243Y-103328200D01*
X194996923Y-102924176D01*
X194469691Y-102705250D01*
X193898813Y-102704752D01*
X193371200Y-102922757D01*
X192967176Y-103326077D01*
X192913138Y-103456215D01*
X192860243Y-103328200D01*
X192456923Y-102924176D01*
X191929691Y-102705250D01*
X191358813Y-102704752D01*
X190831200Y-102922757D01*
X190427176Y-103326077D01*
X190373138Y-103456215D01*
X190320243Y-103328200D01*
X189916923Y-102924176D01*
X189389691Y-102705250D01*
X188818813Y-102704752D01*
X188291200Y-102922757D01*
X187887176Y-103326077D01*
X187833138Y-103456215D01*
X187780243Y-103328200D01*
X187376923Y-102924176D01*
X186849691Y-102705250D01*
X186278813Y-102704752D01*
X185751200Y-102922757D01*
X185347176Y-103326077D01*
X185293138Y-103456215D01*
X185240243Y-103328200D01*
X184836923Y-102924176D01*
X184309691Y-102705250D01*
X183738813Y-102704752D01*
X183211200Y-102922757D01*
X182807176Y-103326077D01*
X182753138Y-103456215D01*
X182700243Y-103328200D01*
X182296923Y-102924176D01*
X181769691Y-102705250D01*
X181198813Y-102704752D01*
X180671200Y-102922757D01*
X180267176Y-103326077D01*
X180213138Y-103456215D01*
X180160243Y-103328200D01*
X179756923Y-102924176D01*
X179229691Y-102705250D01*
X178658813Y-102704752D01*
X178131200Y-102922757D01*
X177727176Y-103326077D01*
X177673138Y-103456215D01*
X177620243Y-103328200D01*
X177216923Y-102924176D01*
X176689691Y-102705250D01*
X176118813Y-102704752D01*
X175591200Y-102922757D01*
X175187176Y-103326077D01*
X175133138Y-103456215D01*
X175080243Y-103328200D01*
X174676923Y-102924176D01*
X174149691Y-102705250D01*
X173578813Y-102704752D01*
X173051200Y-102922757D01*
X172647176Y-103326077D01*
X172428250Y-103853309D01*
X172427752Y-104424187D01*
X172212000Y-104424187D01*
X172212000Y-89184187D01*
X172427752Y-89184187D01*
X172645757Y-89711800D01*
X173049077Y-90115824D01*
X173576309Y-90334750D01*
X174147187Y-90335248D01*
X174674800Y-90117243D01*
X174884663Y-89907745D01*
X175574861Y-89907745D01*
X175648995Y-90153864D01*
X176186223Y-90346965D01*
X176756454Y-90319778D01*
X177157005Y-90153864D01*
X177231139Y-89907745D01*
X176403000Y-89079605D01*
X175574861Y-89907745D01*
X174884663Y-89907745D01*
X175078824Y-89713923D01*
X175126448Y-89599232D01*
X175149136Y-89654005D01*
X175395255Y-89728139D01*
X176223395Y-88900000D01*
X176582605Y-88900000D01*
X177410745Y-89728139D01*
X177656864Y-89654005D01*
X177677805Y-89595746D01*
X177725757Y-89711800D01*
X178129077Y-90115824D01*
X178656309Y-90334750D01*
X179227187Y-90335248D01*
X179754800Y-90117243D01*
X180158824Y-89713923D01*
X180212862Y-89583785D01*
X180265757Y-89711800D01*
X180669077Y-90115824D01*
X181196309Y-90334750D01*
X181767187Y-90335248D01*
X182294800Y-90117243D01*
X182698824Y-89713923D01*
X182752862Y-89583785D01*
X182805757Y-89711800D01*
X183209077Y-90115824D01*
X183736309Y-90334750D01*
X184307187Y-90335248D01*
X184834800Y-90117243D01*
X185238824Y-89713923D01*
X185292862Y-89583785D01*
X185345757Y-89711800D01*
X185749077Y-90115824D01*
X186276309Y-90334750D01*
X186847187Y-90335248D01*
X187374800Y-90117243D01*
X187778824Y-89713923D01*
X187832862Y-89583785D01*
X187885757Y-89711800D01*
X188289077Y-90115824D01*
X188816309Y-90334750D01*
X189387187Y-90335248D01*
X189914800Y-90117243D01*
X190318824Y-89713923D01*
X190372862Y-89583785D01*
X190425757Y-89711800D01*
X190829077Y-90115824D01*
X191356309Y-90334750D01*
X191927187Y-90335248D01*
X192454800Y-90117243D01*
X192858824Y-89713923D01*
X192912862Y-89583785D01*
X192965757Y-89711800D01*
X193369077Y-90115824D01*
X193896309Y-90334750D01*
X194467187Y-90335248D01*
X194994800Y-90117243D01*
X195398824Y-89713923D01*
X195452862Y-89583785D01*
X195505757Y-89711800D01*
X195909077Y-90115824D01*
X196436309Y-90334750D01*
X197007187Y-90335248D01*
X197534800Y-90117243D01*
X197938824Y-89713923D01*
X197992862Y-89583785D01*
X198045757Y-89711800D01*
X198449077Y-90115824D01*
X198976309Y-90334750D01*
X199547187Y-90335248D01*
X200074800Y-90117243D01*
X200478824Y-89713923D01*
X200532862Y-89583785D01*
X200585757Y-89711800D01*
X200989077Y-90115824D01*
X201516309Y-90334750D01*
X202087187Y-90335248D01*
X202614800Y-90117243D01*
X203018824Y-89713923D01*
X203237750Y-89186691D01*
X203238248Y-88615813D01*
X203020243Y-88088200D01*
X202616923Y-87684176D01*
X202089691Y-87465250D01*
X201518813Y-87464752D01*
X200991200Y-87682757D01*
X200587176Y-88086077D01*
X200533138Y-88216215D01*
X200480243Y-88088200D01*
X200076923Y-87684176D01*
X199549691Y-87465250D01*
X198978813Y-87464752D01*
X198451200Y-87682757D01*
X198047176Y-88086077D01*
X197993138Y-88216215D01*
X197940243Y-88088200D01*
X197536923Y-87684176D01*
X197009691Y-87465250D01*
X196438813Y-87464752D01*
X195911200Y-87682757D01*
X195507176Y-88086077D01*
X195453138Y-88216215D01*
X195400243Y-88088200D01*
X194996923Y-87684176D01*
X194469691Y-87465250D01*
X193898813Y-87464752D01*
X193371200Y-87682757D01*
X192967176Y-88086077D01*
X192913138Y-88216215D01*
X192860243Y-88088200D01*
X192456923Y-87684176D01*
X191929691Y-87465250D01*
X191358813Y-87464752D01*
X190831200Y-87682757D01*
X190427176Y-88086077D01*
X190373138Y-88216215D01*
X190320243Y-88088200D01*
X189916923Y-87684176D01*
X189389691Y-87465250D01*
X188818813Y-87464752D01*
X188291200Y-87682757D01*
X187887176Y-88086077D01*
X187833138Y-88216215D01*
X187780243Y-88088200D01*
X187376923Y-87684176D01*
X186849691Y-87465250D01*
X186278813Y-87464752D01*
X185751200Y-87682757D01*
X185347176Y-88086077D01*
X185293138Y-88216215D01*
X185240243Y-88088200D01*
X184836923Y-87684176D01*
X184309691Y-87465250D01*
X183738813Y-87464752D01*
X183211200Y-87682757D01*
X182807176Y-88086077D01*
X182753138Y-88216215D01*
X182700243Y-88088200D01*
X182296923Y-87684176D01*
X181769691Y-87465250D01*
X181198813Y-87464752D01*
X180671200Y-87682757D01*
X180267176Y-88086077D01*
X180213138Y-88216215D01*
X180160243Y-88088200D01*
X179756923Y-87684176D01*
X179229691Y-87465250D01*
X178658813Y-87464752D01*
X178131200Y-87682757D01*
X177727176Y-88086077D01*
X177679552Y-88200768D01*
X177656864Y-88145995D01*
X177410745Y-88071861D01*
X176582605Y-88900000D01*
X176223395Y-88900000D01*
X175395255Y-88071861D01*
X175149136Y-88145995D01*
X175128195Y-88204254D01*
X175080243Y-88088200D01*
X174884640Y-87892255D01*
X175574861Y-87892255D01*
X176403000Y-88720395D01*
X177231139Y-87892255D01*
X177157005Y-87646136D01*
X176619777Y-87453035D01*
X176049546Y-87480222D01*
X175648995Y-87646136D01*
X175574861Y-87892255D01*
X174884640Y-87892255D01*
X174676923Y-87684176D01*
X174149691Y-87465250D01*
X173578813Y-87464752D01*
X173051200Y-87682757D01*
X172647176Y-88086077D01*
X172428250Y-88613309D01*
X172427752Y-89184187D01*
X172212000Y-89184187D01*
X172212000Y-87122000D01*
X216744779Y-87122000D01*
X216314342Y-87299853D01*
M02*
