M48
METRIC,TZ
T1C1.000
T2C1.200
T3C3.500
%
G90
G05
T1
X173863Y-88900
X173863Y-104140
X176403Y-88900
X176403Y-104140
X178943Y-88900
X178943Y-104140
X181483Y-88900
X181483Y-104140
X184023Y-88900
X184023Y-104140
X186563Y-88900
X186563Y-104140
X187452Y-108458
X189103Y-88900
X189103Y-104140
X189484Y-116840
X191643Y-88900
X191643Y-104140
X193040Y-108585
X194183Y-88900
X194183Y-104140
X195580Y-108585
X196723Y-88900
X196723Y-104140
X198120Y-108585
X198755Y-122555
X199263Y-88900
X199263Y-104140
X200660Y-108585
X201295Y-122555
X201803Y-88900
X201803Y-104140
X206375Y-95250
X208915Y-95250
X208915Y-115570
X211455Y-95250
X211455Y-115570
X213995Y-95250
X213995Y-115570
X216535Y-95250
X216535Y-115570
X219075Y-95250
T2
X192278Y-113030
X192278Y-118110
X198882Y-113030
X198882Y-118110
X202565Y-112268
X202565Y-118872
T3
X193675Y-122555
X217805Y-89535
T0
M30
