G04 #@! TF.FileFunction,Legend,Top*
%FSLAX46Y46*%
G04 Gerber Fmt 4.6, Leading zero omitted, Abs format (unit mm)*
G04 Created by KiCad (PCBNEW 4.0.5+dfsg1-4) date Sun Aug 27 14:42:39 2017*
%MOMM*%
%LPD*%
G01*
G04 APERTURE LIST*
%ADD10C,0.100000*%
%ADD11C,0.150000*%
%ADD12C,0.125000*%
G04 APERTURE END LIST*
D10*
D11*
X212725000Y-117602000D02*
X204597000Y-117602000D01*
X204597000Y-117602000D02*
X204597000Y-93218000D01*
X204597000Y-93218000D02*
X220853000Y-93218000D01*
X220853000Y-93218000D02*
X220853000Y-117602000D01*
X220853000Y-117602000D02*
X212725000Y-117602000D01*
X170180000Y-117602000D02*
X172212000Y-117602000D01*
X172212000Y-117602000D02*
X172212000Y-113538000D01*
X172212000Y-113538000D02*
X170180000Y-113538000D01*
X170180000Y-124714000D02*
X190500000Y-124714000D01*
X190500000Y-124714000D02*
X190500000Y-106426000D01*
X190500000Y-106426000D02*
X170180000Y-106426000D01*
X170180000Y-106426000D02*
X170180000Y-124714000D01*
X194056000Y-117348000D02*
X194056000Y-118872000D01*
X194056000Y-118872000D02*
X197104000Y-118872000D01*
X197104000Y-118872000D02*
X197104000Y-117348000D01*
X197104000Y-117348000D02*
X194056000Y-117348000D01*
X192278000Y-119126000D02*
X192278000Y-119888000D01*
X192278000Y-119888000D02*
X198882000Y-119888000D01*
X198882000Y-119888000D02*
X198882000Y-119126000D01*
X192278000Y-116332000D02*
X192278000Y-117094000D01*
X192278000Y-116332000D02*
X198882000Y-116332000D01*
X198882000Y-116332000D02*
X198882000Y-117094000D01*
X169926000Y-98044000D02*
X171323000Y-98044000D01*
X171323000Y-98044000D02*
X171323000Y-94996000D01*
X171323000Y-94996000D02*
X169926000Y-94996000D01*
X169926000Y-87376000D02*
X169926000Y-87249000D01*
X169926000Y-87249000D02*
X203454000Y-87249000D01*
X203454000Y-87249000D02*
X203454000Y-105791000D01*
X203454000Y-105791000D02*
X169926000Y-105791000D01*
X169926000Y-105791000D02*
X169926000Y-87376000D01*
X194056000Y-112268000D02*
X194056000Y-113792000D01*
X194056000Y-113792000D02*
X197104000Y-113792000D01*
X197104000Y-113792000D02*
X197104000Y-112268000D01*
X197104000Y-112268000D02*
X194056000Y-112268000D01*
X192278000Y-114046000D02*
X192278000Y-114808000D01*
X192278000Y-114808000D02*
X198882000Y-114808000D01*
X198882000Y-114808000D02*
X198882000Y-114046000D01*
X192278000Y-111252000D02*
X192278000Y-112014000D01*
X192278000Y-111252000D02*
X198882000Y-111252000D01*
X198882000Y-111252000D02*
X198882000Y-112014000D01*
X201803000Y-117094000D02*
X203327000Y-117094000D01*
X203327000Y-117094000D02*
X203327000Y-114046000D01*
X203327000Y-114046000D02*
X201803000Y-114046000D01*
X201803000Y-114046000D02*
X201803000Y-117094000D01*
X203581000Y-118872000D02*
X204343000Y-118872000D01*
X204343000Y-118872000D02*
X204343000Y-112268000D01*
X204343000Y-112268000D02*
X203581000Y-112268000D01*
X200787000Y-118872000D02*
X201549000Y-118872000D01*
X200787000Y-118872000D02*
X200787000Y-112268000D01*
X200787000Y-112268000D02*
X201549000Y-112268000D01*
X213955381Y-106171905D02*
X214764905Y-106171905D01*
X214860143Y-106124286D01*
X214907762Y-106076667D01*
X214955381Y-105981429D01*
X214955381Y-105790952D01*
X214907762Y-105695714D01*
X214860143Y-105648095D01*
X214764905Y-105600476D01*
X213955381Y-105600476D01*
X213955381Y-104695714D02*
X213955381Y-104886191D01*
X214003000Y-104981429D01*
X214050619Y-105029048D01*
X214193476Y-105124286D01*
X214383952Y-105171905D01*
X214764905Y-105171905D01*
X214860143Y-105124286D01*
X214907762Y-105076667D01*
X214955381Y-104981429D01*
X214955381Y-104790952D01*
X214907762Y-104695714D01*
X214860143Y-104648095D01*
X214764905Y-104600476D01*
X214526810Y-104600476D01*
X214431571Y-104648095D01*
X214383952Y-104695714D01*
X214336333Y-104790952D01*
X214336333Y-104981429D01*
X214383952Y-105076667D01*
X214431571Y-105124286D01*
X214526810Y-105171905D01*
X182833334Y-101131667D02*
X183309525Y-101131667D01*
X182738096Y-101417381D02*
X183071429Y-100417381D01*
X183404763Y-101417381D01*
X184309525Y-101417381D02*
X183976191Y-100941190D01*
X183738096Y-101417381D02*
X183738096Y-100417381D01*
X184119049Y-100417381D01*
X184214287Y-100465000D01*
X184261906Y-100512619D01*
X184309525Y-100607857D01*
X184309525Y-100750714D01*
X184261906Y-100845952D01*
X184214287Y-100893571D01*
X184119049Y-100941190D01*
X183738096Y-100941190D01*
X184738096Y-101417381D02*
X184738096Y-100417381D01*
X184976191Y-100417381D01*
X185119049Y-100465000D01*
X185214287Y-100560238D01*
X185261906Y-100655476D01*
X185309525Y-100845952D01*
X185309525Y-100988810D01*
X185261906Y-101179286D01*
X185214287Y-101274524D01*
X185119049Y-101369762D01*
X184976191Y-101417381D01*
X184738096Y-101417381D01*
X185738096Y-100417381D02*
X185738096Y-101226905D01*
X185785715Y-101322143D01*
X185833334Y-101369762D01*
X185928572Y-101417381D01*
X186119049Y-101417381D01*
X186214287Y-101369762D01*
X186261906Y-101322143D01*
X186309525Y-101226905D01*
X186309525Y-100417381D01*
X186785715Y-101417381D02*
X186785715Y-100417381D01*
X187261905Y-101417381D02*
X187261905Y-100417381D01*
X187833334Y-101417381D01*
X187833334Y-100417381D01*
X188500000Y-100417381D02*
X188690477Y-100417381D01*
X188785715Y-100465000D01*
X188880953Y-100560238D01*
X188928572Y-100750714D01*
X188928572Y-101084048D01*
X188880953Y-101274524D01*
X188785715Y-101369762D01*
X188690477Y-101417381D01*
X188500000Y-101417381D01*
X188404762Y-101369762D01*
X188309524Y-101274524D01*
X188261905Y-101084048D01*
X188261905Y-100750714D01*
X188309524Y-100560238D01*
X188404762Y-100465000D01*
X188500000Y-100417381D01*
X189119048Y-101512619D02*
X189880953Y-101512619D01*
X190119048Y-101417381D02*
X190119048Y-100417381D01*
X190500001Y-100417381D01*
X190595239Y-100465000D01*
X190642858Y-100512619D01*
X190690477Y-100607857D01*
X190690477Y-100750714D01*
X190642858Y-100845952D01*
X190595239Y-100893571D01*
X190500001Y-100941190D01*
X190119048Y-100941190D01*
X191690477Y-101417381D02*
X191357143Y-100941190D01*
X191119048Y-101417381D02*
X191119048Y-100417381D01*
X191500001Y-100417381D01*
X191595239Y-100465000D01*
X191642858Y-100512619D01*
X191690477Y-100607857D01*
X191690477Y-100750714D01*
X191642858Y-100845952D01*
X191595239Y-100893571D01*
X191500001Y-100941190D01*
X191119048Y-100941190D01*
X192309524Y-100417381D02*
X192500001Y-100417381D01*
X192595239Y-100465000D01*
X192690477Y-100560238D01*
X192738096Y-100750714D01*
X192738096Y-101084048D01*
X192690477Y-101274524D01*
X192595239Y-101369762D01*
X192500001Y-101417381D01*
X192309524Y-101417381D01*
X192214286Y-101369762D01*
X192119048Y-101274524D01*
X192071429Y-101084048D01*
X192071429Y-100750714D01*
X192119048Y-100560238D01*
X192214286Y-100465000D01*
X192309524Y-100417381D01*
X192928572Y-101512619D02*
X193690477Y-101512619D01*
X193928572Y-101417381D02*
X193928572Y-100417381D01*
X194261906Y-101131667D01*
X194595239Y-100417381D01*
X194595239Y-101417381D01*
X195071429Y-101417381D02*
X195071429Y-100417381D01*
X196119048Y-101322143D02*
X196071429Y-101369762D01*
X195928572Y-101417381D01*
X195833334Y-101417381D01*
X195690476Y-101369762D01*
X195595238Y-101274524D01*
X195547619Y-101179286D01*
X195500000Y-100988810D01*
X195500000Y-100845952D01*
X195547619Y-100655476D01*
X195595238Y-100560238D01*
X195690476Y-100465000D01*
X195833334Y-100417381D01*
X195928572Y-100417381D01*
X196071429Y-100465000D01*
X196119048Y-100512619D01*
X197119048Y-101417381D02*
X196785714Y-100941190D01*
X196547619Y-101417381D02*
X196547619Y-100417381D01*
X196928572Y-100417381D01*
X197023810Y-100465000D01*
X197071429Y-100512619D01*
X197119048Y-100607857D01*
X197119048Y-100750714D01*
X197071429Y-100845952D01*
X197023810Y-100893571D01*
X196928572Y-100941190D01*
X196547619Y-100941190D01*
X197738095Y-100417381D02*
X197928572Y-100417381D01*
X198023810Y-100465000D01*
X198119048Y-100560238D01*
X198166667Y-100750714D01*
X198166667Y-101084048D01*
X198119048Y-101274524D01*
X198023810Y-101369762D01*
X197928572Y-101417381D01*
X197738095Y-101417381D01*
X197642857Y-101369762D01*
X197547619Y-101274524D01*
X197500000Y-101084048D01*
X197500000Y-100750714D01*
X197547619Y-100560238D01*
X197642857Y-100465000D01*
X197738095Y-100417381D01*
X198374048Y-124150429D02*
X199135953Y-124150429D01*
X198755001Y-124531381D02*
X198755001Y-123769476D01*
X200914048Y-124150429D02*
X201675953Y-124150429D01*
D12*
X195230000Y-106578333D02*
X195196667Y-106644999D01*
X195196667Y-106744999D01*
X195230000Y-106844999D01*
X195296667Y-106911666D01*
X195363333Y-106944999D01*
X195496667Y-106978333D01*
X195596667Y-106978333D01*
X195730000Y-106944999D01*
X195796667Y-106911666D01*
X195863333Y-106844999D01*
X195896667Y-106744999D01*
X195896667Y-106678333D01*
X195863333Y-106578333D01*
X195830000Y-106544999D01*
X195596667Y-106544999D01*
X195596667Y-106678333D01*
X195896667Y-106244999D02*
X195196667Y-106244999D01*
X195896667Y-105844999D01*
X195196667Y-105844999D01*
X195896667Y-105511666D02*
X195196667Y-105511666D01*
X195196667Y-105345000D01*
X195230000Y-105245000D01*
X195296667Y-105178333D01*
X195363333Y-105145000D01*
X195496667Y-105111666D01*
X195596667Y-105111666D01*
X195730000Y-105145000D01*
X195796667Y-105178333D01*
X195863333Y-105245000D01*
X195896667Y-105345000D01*
X195896667Y-105511666D01*
X197736667Y-106978333D02*
X198436667Y-106745000D01*
X197736667Y-106511667D01*
X198370000Y-105878333D02*
X198403333Y-105911667D01*
X198436667Y-106011667D01*
X198436667Y-106078333D01*
X198403333Y-106178333D01*
X198336667Y-106245000D01*
X198270000Y-106278333D01*
X198136667Y-106311667D01*
X198036667Y-106311667D01*
X197903333Y-106278333D01*
X197836667Y-106245000D01*
X197770000Y-106178333D01*
X197736667Y-106078333D01*
X197736667Y-106011667D01*
X197770000Y-105911667D01*
X197803333Y-105878333D01*
X198370000Y-105178333D02*
X198403333Y-105211667D01*
X198436667Y-105311667D01*
X198436667Y-105378333D01*
X198403333Y-105478333D01*
X198336667Y-105545000D01*
X198270000Y-105578333D01*
X198136667Y-105611667D01*
X198036667Y-105611667D01*
X197903333Y-105578333D01*
X197836667Y-105545000D01*
X197770000Y-105478333D01*
X197736667Y-105378333D01*
X197736667Y-105311667D01*
X197770000Y-105211667D01*
X197803333Y-105178333D01*
D11*
X200976667Y-107156999D02*
X200276667Y-107156999D01*
X200276667Y-106990333D01*
X200310000Y-106890333D01*
X200376667Y-106823666D01*
X200443333Y-106790333D01*
X200576667Y-106756999D01*
X200676667Y-106756999D01*
X200810000Y-106790333D01*
X200876667Y-106823666D01*
X200943333Y-106890333D01*
X200976667Y-106990333D01*
X200976667Y-107156999D01*
X200976667Y-106456999D02*
X200276667Y-106456999D01*
M02*
